<svg width="11" height="8" viewBox="0 0 11 8" fill="none" xmlns="http://www.w3.org/2000/svg">
<path opacity="0.3" d="M4.88367 7.06665C5.00867 7.2229 5.19617 7.2854 5.41492 7.2854C5.60242 7.2854 5.78992 7.2229 5.94617 7.06665L10.1962 2.81665C10.3212 2.69165 10.4149 2.50415 10.4149 2.2854C10.4149 2.0979 10.3212 1.9104 10.1962 1.75415L9.47742 1.06665C9.32117 0.94165 9.13367 0.8479 8.94617 0.8479C8.72742 0.8479 8.53992 0.94165 8.41492 1.06665L5.41492 4.06665L2.41492 1.06665C2.25867 0.94165 2.07117 0.8479 1.88367 0.8479C1.66492 0.8479 1.47742 0.94165 1.35242 1.06665L0.633667 1.75415C0.477417 1.9104 0.414917 2.0979 0.414917 2.2854C0.414917 2.50415 0.477417 2.69165 0.633667 2.81665L4.88367 7.06665Z" fill="black"/>
</svg>
