<svg width="8" height="5" viewBox="0 0 8 5" fill="none" xmlns="http://www.w3.org/2000/svg">
<path opacity="0.3" d="M3.76648 4.81665C3.86023 4.93384 4.00085 4.98071 4.16492 4.98071C4.30554 4.98071 4.44617 4.93384 4.56335 4.81665L7.75085 1.62915C7.8446 1.5354 7.91492 1.39478 7.91492 1.23071C7.91492 1.09009 7.8446 0.949463 7.75085 0.832275L7.21179 0.31665C7.0946 0.2229 6.95398 0.152588 6.81335 0.152588C6.64929 0.152588 6.50867 0.2229 6.41492 0.31665L4.16492 2.56665L1.91492 0.31665C1.79773 0.2229 1.6571 0.152588 1.51648 0.152588C1.35242 0.152588 1.21179 0.2229 1.11804 0.31665L0.578979 0.832275C0.461792 0.949463 0.414917 1.09009 0.414917 1.23071C0.414917 1.39478 0.461792 1.5354 0.578979 1.62915L3.76648 4.81665Z" fill="black"/>
</svg>
