<svg width="11" height="16" viewBox="0 0 11 16" fill="none" xmlns="http://www.w3.org/2000/svg">
<path d="M5.5 11C7.15625 11 8.5 9.6875 8.5 8V3C8.5 1.34375 7.15625 0 5.5 0C3.8125 0 2.5 1.34375 2.5 3V8C2.5 9.6875 3.8125 11 5.5 11ZM10.5 6H10C9.71875 6 9.5 6.25 9.5 6.5V8C9.5 10.3438 7.46875 12.2188 5.09375 12C3 11.7812 1.5 9.9375 1.5 7.84375V6.5C1.5 6.25 1.25 6 1 6H0.5C0.21875 6 0 6.25 0 6.5V7.78125C0 10.5625 1.96875 13.0625 4.75 13.4375V14.5H3C2.71875 14.5 2.5 14.75 2.5 15V15.5C2.5 15.7812 2.71875 16 3 16H8C8.25 16 8.5 15.7812 8.5 15.5V15C8.5 14.75 8.25 14.5 8 14.5H6.25V13.4688C8.90625 13.0938 11 10.7812 11 8V6.5C11 6.25 10.75 6 10.5 6Z" fill="#3A2A00"/>
</svg>
