<svg width="78" height="30" viewBox="0 0 78 30" fill="none" xmlns="http://www.w3.org/2000/svg">
<path d="M0 15C0 6.71573 6.71573 0 15 0H63C71.2843 0 78 6.71573 78 15C78 23.2843 71.2843 30 63 30H15C6.71573 30 0 23.2843 0 15Z" fill="#FFD400"/>
<path d="M27 8H15C13.875 8 13 8.90625 13 10V19C13 20.125 13.875 21 15 21H18V23.625C18 23.9375 18.3438 24.125 18.5938 23.9375L22.5 21H27C28.0938 21 29 20.125 29 19V10C29 8.90625 28.0938 8 27 8Z" fill="#3A2A00"/>
<path d="M19.1244 16.776H19.9044V12.264H18.6804V13.632H17.3724V11.064H24.4524V13.632H23.1444V12.264H21.9324V16.776H22.7124V18H19.1244V16.776Z" fill="#FFD400"/>
<path d="M38.5449 13.0527V13.0703H39.9629V13.0469C39.9629 12.209 40.6191 11.5879 41.498 11.5879C42.3359 11.5879 42.9629 12.1445 42.9629 12.8418C42.9629 13.4746 42.6992 13.9082 41.7383 14.8867L38.627 17.9805V19H44.5684V17.7637H40.6426V17.7344L42.7344 15.666C43.8418 14.5469 44.4395 13.7852 44.4395 12.7773C44.4395 11.4062 43.2324 10.375 41.5449 10.375C39.793 10.375 38.5449 11.4941 38.5449 13.0527ZM49.0491 19.1699C51.1175 19.1699 52.348 17.4648 52.348 14.7578C52.348 12.0508 51.1058 10.375 49.0491 10.375C46.9866 10.375 45.7386 12.0625 45.7386 14.7637C45.7386 17.4766 46.9749 19.1699 49.0491 19.1699ZM49.0491 17.9336C47.9241 17.9336 47.262 16.75 47.262 14.7578C47.262 12.8008 47.9359 11.6113 49.0491 11.6113C50.1566 11.6113 50.8187 12.7891 50.8187 14.7637C50.8187 16.7559 50.1683 17.9336 49.0491 17.9336ZM64.6455 18.63C64.6255 17.06 64.2355 15.38 63.3255 14.08C62.6455 13.12 61.7655 12.51 60.8555 12.37L60.8455 11.44L59.6855 11.94L59.6655 12.41C56.9155 12.96 55.9555 16.1 55.8155 18.55L55.8055 18.84L57.2355 18.91L57.2455 18.6C57.2455 16.89 57.6755 14.9 59.1555 13.86C59.3255 13.75 59.4955 13.68 59.6255 13.61L59.4755 18.71L60.9255 17.88L60.8755 13.58C62.7955 14.18 63.1255 16.92 63.2355 18.62L63.2555 18.89L64.6555 18.94L64.6455 18.63Z" fill="#3A2A00"/>
</svg>
