<svg width="73" height="30" viewBox="0 0 73 30" fill="none" xmlns="http://www.w3.org/2000/svg">
<path d="M0 15C0 6.71573 6.71573 0 15 0H58C66.2843 0 73 6.71573 73 15C73 23.2843 66.2843 30 58 30H15C6.71573 30 0 23.2843 0 15Z" fill="#FFD400"/>
<path d="M18.5 18C20.1562 18 21.5 16.6875 21.5 15V10C21.5 8.34375 20.1562 7 18.5 7C16.8125 7 15.5 8.34375 15.5 10V15C15.5 16.6875 16.8125 18 18.5 18ZM23.5 13H23C22.7188 13 22.5 13.25 22.5 13.5V15C22.5 17.3438 20.4688 19.2188 18.0938 19C16 18.7812 14.5 16.9375 14.5 14.8438V13.5C14.5 13.25 14.25 13 14 13H13.5C13.2188 13 13 13.25 13 13.5V14.7812C13 17.5625 14.9688 20.0625 17.75 20.4375V21.5H16C15.7188 21.5 15.5 21.75 15.5 22V22.5C15.5 22.7812 15.7188 23 16 23H21C21.25 23 21.5 22.7812 21.5 22.5V22C21.5 21.75 21.25 21.5 21 21.5H19.25V20.4688C21.9062 20.0938 24 17.7812 24 15V13.5C24 13.25 23.75 13 23.5 13Z" fill="#3A2A00"/>
<path d="M35.5664 15.2324H36.6094C37.6582 15.2324 38.3027 15.7539 38.3027 16.6094C38.3027 17.3887 37.6172 17.9336 36.6445 17.9336C35.6367 17.9336 35.0039 17.418 34.9336 16.6445H33.4922C33.5684 18.1504 34.7754 19.1699 36.6328 19.1699C38.4785 19.1699 39.8379 18.1621 39.8379 16.668C39.8379 15.4902 39.0176 14.7168 37.752 14.623V14.5879C38.7949 14.4062 39.498 13.6504 39.498 12.6016C39.498 11.2832 38.3145 10.375 36.6504 10.375C34.9043 10.375 33.7383 11.3594 33.6562 12.877H35.0625C35.1211 12.0859 35.707 11.5762 36.5801 11.5762C37.5293 11.5762 38.0449 12.0684 38.0449 12.8066C38.0449 13.5625 37.4531 14.0957 36.5859 14.0957H35.5664V15.2324ZM44.3655 19.1699C46.4339 19.1699 47.6644 17.4648 47.6644 14.7578C47.6644 12.0508 46.4222 10.375 44.3655 10.375C42.303 10.375 41.055 12.0625 41.055 14.7637C41.055 17.4766 42.2913 19.1699 44.3655 19.1699ZM44.3655 17.9336C43.2405 17.9336 42.5784 16.75 42.5784 14.7578C42.5784 12.8008 43.2523 11.6113 44.3655 11.6113C45.473 11.6113 46.1351 12.7891 46.1351 14.7637C46.1351 16.7559 45.4847 17.9336 44.3655 17.9336ZM59.9619 18.63C59.9419 17.06 59.5519 15.38 58.6419 14.08C57.9619 13.12 57.0819 12.51 56.1719 12.37L56.1619 11.44L55.0019 11.94L54.9819 12.41C52.2319 12.96 51.2719 16.1 51.1319 18.55L51.1219 18.84L52.5519 18.91L52.5619 18.6C52.5619 16.89 52.9919 14.9 54.4719 13.86C54.6419 13.75 54.8119 13.68 54.9419 13.61L54.7919 18.71L56.2419 17.88L56.1919 13.58C58.1119 14.18 58.4419 16.92 58.5519 18.62L58.5719 18.89L59.9719 18.94L59.9619 18.63Z" fill="#3A2A00"/>
</svg>
