<svg width="110" height="114" viewBox="0 0 110 114" fill="none" xmlns="http://www.w3.org/2000/svg">
<path fill-rule="evenodd" clip-rule="evenodd" d="M81.7183 32.488L55.8288 57.3086C53.8994 59.1584 50.8461 59.1295 48.9519 57.2436L43.5917 51.9066L29.0889 65.635L22.3237 58.4883L40.2957 41.476C42.228 39.6468 45.2644 39.6852 47.1499 41.5625L52.4886 46.878L74.9079 25.3844L81.7183 32.488Z" fill="white"/>
<path d="M23.3665 76.0329H38.9888V91.6552H23.3665V76.0329Z" fill="white"/>
<path d="M45.2377 66.6595H60.86V91.6552H45.2377V66.6595Z" fill="white"/>
<path d="M67.1089 57.2861H82.7313V91.6552H67.1089V57.2861Z" fill="white"/>
<path fill-rule="evenodd" clip-rule="evenodd" d="M75.432 31.9571L61.0792 31.6266L61.3057 21.7883L80.5777 22.232C83.2944 22.2946 85.4461 24.5477 85.3835 27.2644L84.9398 46.5364L75.1016 46.3099L75.432 31.9571Z" fill="white"/>
</svg>
