<svg width="20" height="19" viewBox="0 0 20 19" fill="#fff" xmlns="http://www.w3.org/2000/svg">
<path d="M8.85353 0.818237C8.99416 0.536987 9.16994 0.361206 9.45119 0.255737C9.73244 0.185425 9.97853 0.185425 10.2598 0.255737C10.541 0.361206 10.752 0.536987 10.8926 0.818237L13.1778 5.45886L18.3106 6.19714C18.5918 6.26746 18.8379 6.40808 19.0137 6.61902C19.1895 6.86511 19.2598 7.11121 19.2598 7.39246C19.2598 7.67371 19.1543 7.9198 18.9434 8.13074L15.2168 11.7518L16.0957 16.8846C16.1309 17.1659 16.0606 17.4471 15.9199 17.6932C15.7793 17.9393 15.5684 18.08 15.2871 18.1503C15.0059 18.2206 14.7246 18.1854 14.4785 18.0448L9.87307 15.6542L5.2676 18.0448C4.98635 18.1854 4.74025 18.2206 4.459 18.1503C4.17775 18.08 3.93166 17.9393 3.79103 17.6932C3.65041 17.4471 3.5801 17.1659 3.65041 16.8846L4.52932 11.7518L0.802753 8.13074C0.591816 7.9198 0.451191 7.67371 0.451191 7.39246C0.451191 7.11121 0.521503 6.86511 0.697285 6.61902C0.873066 6.40808 1.11916 6.26746 1.43557 6.19714L6.56838 5.45886L8.85353 0.818237Z" fill="#fff"/>
</svg>
